<!-- Generator: Adobe Illustrator 19.0.0, SVG Export Plug-In  -->
<svg version="1.1"
	 xmlns="http://www.w3.org/2000/svg" xmlns:xlink="http://www.w3.org/1999/xlink" xmlns:a="http://ns.adobe.com/AdobeSVGViewerExtensions/3.0/"
	 x="0px" y="0px" width="1158.1px" height="234.9px" viewBox="0 0 1158.1 234.9" style="enable-background:new 0 0 1158.1 234.9;"
	 xml:space="preserve">
<style type="text/css">
	.st0{fill:#0082B6;}
	.st1{fill:#009EDD;}
</style>
<defs>
</defs>
<g id="XMLID_36_">
	<path id="XMLID_39_" class="st0" d="M138.3,151.8L138.3,151.8L138.3,151.8L138.3,151.8z"/>
	<path id="XMLID_38_" class="st0" d="M201.5,204.3L171.2,152l0,0h-33c0.1,2.5,0.7,4.9,2,7.2l39.3,68c2.7,4.7,7.7,7.6,13.1,7.6h93.3
		c2.8,0,4.3-3.5,2.2-5.5l-19.6-19.6c-3.4-3.4-8-5.3-12.8-5.3h-54.3L201.5,204.3L201.5,204.3z"/>
	<path id="XMLID_37_" class="st1" d="M171.3,152l30.3-52.3h54.9c4.8,0,9.4-1.9,12.8-5.3l19.6-19.6c2-2,0.6-5.5-2.2-5.5h-93.8
		c-5.4,0-10.4,2.9-13.1,7.6l-39.3,67.8c-1.3,2.2-1.9,4.7-2,7.2l0,0l0,0l0,0L171.3,152L171.3,152z"/>
</g>
<g id="XMLID_32_">
	<path id="XMLID_35_" class="st0" d="M0.1,117L0.1,117L0.1,117L0.1,117z"/>
	<path id="XMLID_34_" class="st0" d="M89.9,43.1l76.8,0.4c6.8,0,13.3-2.6,18.1-7.4l27.8-27.6c3-2.8,0.9-7.8-3.1-7.8L77.6,0
		C70,0,62.8,4.1,59,10.7L2.9,106.6c-1.8,3.1-2.7,6.6-2.9,10.1l46.6,0.2l0,0l43.2-73.8H89.9z"/>
	<path id="XMLID_33_" class="st1" d="M46.7,117.1L0.1,117l0,0l0,0l0,0c0.1,3.5,1,7,2.8,10.1L58,223.3c3.8,6.7,10.9,10.8,18.5,10.9
		l132.7,0.7c4,0,6-4.9,3.2-7.8l-27.6-27.8c-4.8-4.8-11.2-7.5-18-7.6l-77.6-0.4L46.7,117.1L46.7,117.1z"/>
</g>
<g id="XMLID_12_">
	<path id="XMLID_31_" class="st0" d="M430.4,62.7l-15,19.4h-37.8c-6.5,0-12.6-1-18.1-2.9c-5.6-2-10.3-4.6-14.4-8.1
		c-4-3.4-7.2-7.5-9.5-12.2s-3.4-9.8-3.4-15.3s1.1-10.5,3.4-15s5.4-8.4,9.5-11.7c4-3.3,8.8-5.8,14.4-7.5c5.6-1.8,11.6-2.6,18.1-2.6
		h52.8l-15,19.6h-37.8c-3.2,0-6.1,0.5-8.8,1.4c-2.7,0.9-5,2.2-7,3.8c-2,1.6-3.5,3.5-4.6,5.8s-1.7,4.7-1.7,7.4s0.5,5.2,1.6,7.4
		c1.1,2.2,2.6,4.1,4.6,5.7s4.3,2.8,7,3.7c2.7,0.9,5.6,1.3,8.8,1.3h52.9V62.7z"/>
	<path id="XMLID_30_" class="st0" d="M530,82.1h-23.2V53H462v29.1h-23.4V6.8H462v26.7h44.8V6.8H530V82.1z"/>
	<path id="XMLID_28_" class="st0" d="M576.1,82.1l14.1-19.4h18.9c2.3,0,4.6,0,7,0s4.6,0.1,6.4,0.2c-1.1-1.4-2.3-3.1-3.7-5.1
		c-1.4-2.1-2.7-4-4-5.8l-13.5-19.9l-35.4,50h-27.6L586.6,14c1.6-2.2,3.6-4.1,6-5.9c2.4-1.7,5.4-2.6,9.1-2.6c3.5,0,6.5,0.8,8.8,2.4
		c2.4,1.6,4.4,3.6,6,6L663.6,82L576.1,82.1L576.1,82.1z"/>
	<path id="XMLID_26_" class="st0" d="M771.5,35c0,4.2-0.8,8-2.5,11.4s-4.1,6.3-7.3,8.7c-3.2,2.4-7.1,4.3-11.7,5.6
		c-4.6,1.4-9.8,2-15.7,2h-39.4V82h-23.2V43.6h64.9c3.6,0,6.4-0.8,8.4-2.4s3-3.7,3-6.3c0-2.6-1-4.7-3-6.3c-2-1.5-4.8-2.3-8.4-2.3
		h-64.9l15.4-19.6h47.3c5.9,0,11.1,0.7,15.7,2.1c4.6,1.4,8.4,3.3,11.6,5.8s5.6,5.4,7.2,8.9C770.7,27,771.5,30.8,771.5,35z"/>
	<path id="XMLID_24_" class="st0" d="M797.4,82.1l14.1-19.4h18.9c2.3,0,4.6,0,7,0s4.6,0.1,6.4,0.2c-1.1-1.4-2.3-3.1-3.7-5.1
		c-1.4-2.1-2.7-4-4-5.8l-13.5-19.9l-35.4,50h-27.6L807.9,14c1.6-2.2,3.6-4.1,6-5.9c2.4-1.7,5.4-2.6,9.1-2.6c3.5,0,6.5,0.8,8.8,2.4
		c2.4,1.6,4.4,3.6,6,6L884.9,82L797.4,82.1L797.4,82.1z"/>
	<path id="XMLID_22_" class="st0" d="M962.8,6.8l-15.1,19.6h-26.9v55.7h-23.3V26.4h-35.4l15.1-19.6H962.8z"/>
	<path id="XMLID_20_" class="st0" d="M1063.5,6.8l-15.1,19.6h-26.9v55.7h-23.3V26.4h-35.4l15.1-19.6H1063.5z"/>
	<path id="XMLID_18_" class="st0" d="M1158.1,62.7l-15,19.4h-72.5V6.8h87.3l-15.1,19.6H1094v9h59.7l-13.4,17.1H1094v10.2
		L1158.1,62.7L1158.1,62.7z"/>
	<path id="XMLID_16_" class="st1" d="M430.4,197.9l-15,19.4h-37.8c-6.5,0-12.6-1-18.1-2.9c-5.6-2-10.3-4.6-14.4-8.1
		c-4-3.4-7.2-7.5-9.5-12.2s-3.4-9.8-3.4-15.3s1.1-10.5,3.4-15s5.4-8.4,9.5-11.7c4-3.3,8.8-5.8,14.4-7.5c5.6-1.8,11.6-2.6,18.1-2.6
		h52.8l-15,19.6h-37.8c-3.2,0-6.1,0.5-8.8,1.4c-2.7,0.9-5,2.2-7,3.8c-2,1.6-3.5,3.5-4.6,5.8s-1.7,4.7-1.7,7.4c0,2.7,0.5,5.2,1.6,7.4
		c1.1,2.2,2.6,4.1,4.6,5.7s4.3,2.8,7,3.7c2.7,0.9,5.6,1.3,8.8,1.3h52.9V197.9z"/>
	<path id="XMLID_14_" class="st1" d="M491.2,140.7c18.3,0,32.1,3.1,41.3,9.3c9.2,6.2,13.8,16.1,13.8,29.5c0,13.5-4.6,23.4-13.7,29.6
		c-9.2,6.2-22.9,9.3-41.3,9.3c-18.5,0-32.3-3.1-41.4-9.3c-9.1-6.2-13.7-16.1-13.7-29.6c0-13.4,4.6-23.3,13.7-29.5
		C459,143.8,472.8,140.7,491.2,140.7z M491.2,198.9c5.9,0,10.8-0.2,14.9-0.7c4.1-0.5,7.3-1.4,9.9-2.9c2.5-1.4,4.3-3.4,5.5-5.9
		c1.1-2.5,1.7-5.8,1.7-9.9s-0.6-7.3-1.7-9.9c-1.1-2.5-2.9-4.5-5.5-5.9c-2.5-1.4-5.8-2.3-9.9-2.8c-4.1-0.5-9-0.7-14.9-0.7
		s-10.8,0.2-14.9,0.7c-4.1,0.5-7.3,1.4-9.9,2.8c-2.5,1.4-4.3,3.3-5.5,5.9c-1.1,2.5-1.7,5.8-1.7,9.9s0.6,7.3,1.7,9.9
		c1.1,2.5,2.9,4.5,5.5,5.9c2.5,1.4,5.8,2.4,9.9,2.9S485.4,198.9,491.2,198.9z"/>
</g>
<g id="XMLID_10_">
</g>
</svg>
